<?xml version="1.0" encoding="utf-8" standalone="no"?>
<!DOCTYPE svg PUBLIC "-//W3C//DTD SVG 1.1//EN"
  "http://www.w3.org/Graphics/SVG/1.1/DTD/svg11.dtd">
<!-- Created with matplotlib (http://matplotlib.org/) -->
<svg height="397.703562pt" version="1.1" viewBox="0 0 576.850062 397.703562" width="576.850062pt" xmlns="http://www.w3.org/2000/svg" xmlns:xlink="http://www.w3.org/1999/xlink">
 <defs>
  <style type="text/css">
*{stroke-linecap:butt;stroke-linejoin:round;}
  </style>
 </defs>
 <g id="figure_1">
  <g id="patch_1">
   <path d="M 0 397.703562 
L 576.850062 397.703562 
L 576.850062 0 
L 0 0 
z
" style="fill:#ffffff;"/>
  </g>
  <g id="axes_1">
   <g id="patch_2">
    <path d="M 61.450063 345.84 
L 563.650063 345.84 
L 563.650063 13.2 
L 61.450063 13.2 
z
" style="fill:#ffffff;"/>
   </g>
   <g id="matplotlib.axis_1">
    <g id="xtick_1">
     <g id="line2d_1">
      <defs>
       <path d="M 0 0 
L 0 6 
" id="ma7afe0703a" style="stroke:#262626;stroke-width:1.25;"/>
      </defs>
      <g>
       <use style="fill:#262626;stroke:#262626;stroke-width:1.25;" x="103.300063" xlink:href="#ma7afe0703a" y="345.84"/>
      </g>
     </g>
     <g id="text_1">
      <!-- 0 -->
      <defs>
       <path d="M 31.78125 66.40625 
Q 24.171875 66.40625 20.328125 58.90625 
Q 16.5 51.421875 16.5 36.375 
Q 16.5 21.390625 20.328125 13.890625 
Q 24.171875 6.390625 31.78125 6.390625 
Q 39.453125 6.390625 43.28125 13.890625 
Q 47.125 21.390625 47.125 36.375 
Q 47.125 51.421875 43.28125 58.90625 
Q 39.453125 66.40625 31.78125 66.40625 
z
M 31.78125 74.21875 
Q 44.046875 74.21875 50.515625 64.515625 
Q 56.984375 54.828125 56.984375 36.375 
Q 56.984375 17.96875 50.515625 8.265625 
Q 44.046875 -1.421875 31.78125 -1.421875 
Q 19.53125 -1.421875 13.0625 8.265625 
Q 6.59375 17.96875 6.59375 36.375 
Q 6.59375 54.828125 13.0625 64.515625 
Q 19.53125 74.21875 31.78125 74.21875 
z
" id="DejaVuSans-30"/>
      </defs>
      <g style="fill:#262626;" transform="translate(98.400938 367.041594)scale(0.154 -0.154)">
       <use xlink:href="#DejaVuSans-30"/>
      </g>
     </g>
    </g>
    <g id="xtick_2">
     <g id="line2d_2">
      <g>
       <use style="fill:#262626;stroke:#262626;stroke-width:1.25;" x="187.000063" xlink:href="#ma7afe0703a" y="345.84"/>
      </g>
     </g>
     <g id="text_2">
      <!-- 1 -->
      <defs>
       <path d="M 12.40625 8.296875 
L 28.515625 8.296875 
L 28.515625 63.921875 
L 10.984375 60.40625 
L 10.984375 69.390625 
L 28.421875 72.90625 
L 38.28125 72.90625 
L 38.28125 8.296875 
L 54.390625 8.296875 
L 54.390625 0 
L 12.40625 0 
z
" id="DejaVuSans-31"/>
      </defs>
      <g style="fill:#262626;" transform="translate(182.100938 367.041594)scale(0.154 -0.154)">
       <use xlink:href="#DejaVuSans-31"/>
      </g>
     </g>
    </g>
    <g id="xtick_3">
     <g id="line2d_3">
      <g>
       <use style="fill:#262626;stroke:#262626;stroke-width:1.25;" x="270.700063" xlink:href="#ma7afe0703a" y="345.84"/>
      </g>
     </g>
     <g id="text_3">
      <!-- 2 -->
      <defs>
       <path d="M 19.1875 8.296875 
L 53.609375 8.296875 
L 53.609375 0 
L 7.328125 0 
L 7.328125 8.296875 
Q 12.9375 14.109375 22.625 23.890625 
Q 32.328125 33.6875 34.8125 36.53125 
Q 39.546875 41.84375 41.421875 45.53125 
Q 43.3125 49.21875 43.3125 52.78125 
Q 43.3125 58.59375 39.234375 62.25 
Q 35.15625 65.921875 28.609375 65.921875 
Q 23.96875 65.921875 18.8125 64.3125 
Q 13.671875 62.703125 7.8125 59.421875 
L 7.8125 69.390625 
Q 13.765625 71.78125 18.9375 73 
Q 24.125 74.21875 28.421875 74.21875 
Q 39.75 74.21875 46.484375 68.546875 
Q 53.21875 62.890625 53.21875 53.421875 
Q 53.21875 48.921875 51.53125 44.890625 
Q 49.859375 40.875 45.40625 35.40625 
Q 44.1875 33.984375 37.640625 27.21875 
Q 31.109375 20.453125 19.1875 8.296875 
z
" id="DejaVuSans-32"/>
      </defs>
      <g style="fill:#262626;" transform="translate(265.800938 367.041594)scale(0.154 -0.154)">
       <use xlink:href="#DejaVuSans-32"/>
      </g>
     </g>
    </g>
    <g id="xtick_4">
     <g id="line2d_4">
      <g>
       <use style="fill:#262626;stroke:#262626;stroke-width:1.25;" x="354.400063" xlink:href="#ma7afe0703a" y="345.84"/>
      </g>
     </g>
     <g id="text_4">
      <!-- 3 -->
      <defs>
       <path d="M 40.578125 39.3125 
Q 47.65625 37.796875 51.625 33 
Q 55.609375 28.21875 55.609375 21.1875 
Q 55.609375 10.40625 48.1875 4.484375 
Q 40.765625 -1.421875 27.09375 -1.421875 
Q 22.515625 -1.421875 17.65625 -0.515625 
Q 12.796875 0.390625 7.625 2.203125 
L 7.625 11.71875 
Q 11.71875 9.328125 16.59375 8.109375 
Q 21.484375 6.890625 26.8125 6.890625 
Q 36.078125 6.890625 40.9375 10.546875 
Q 45.796875 14.203125 45.796875 21.1875 
Q 45.796875 27.640625 41.28125 31.265625 
Q 36.765625 34.90625 28.71875 34.90625 
L 20.21875 34.90625 
L 20.21875 43.015625 
L 29.109375 43.015625 
Q 36.375 43.015625 40.234375 45.921875 
Q 44.09375 48.828125 44.09375 54.296875 
Q 44.09375 59.90625 40.109375 62.90625 
Q 36.140625 65.921875 28.71875 65.921875 
Q 24.65625 65.921875 20.015625 65.03125 
Q 15.375 64.15625 9.8125 62.3125 
L 9.8125 71.09375 
Q 15.4375 72.65625 20.34375 73.4375 
Q 25.25 74.21875 29.59375 74.21875 
Q 40.828125 74.21875 47.359375 69.109375 
Q 53.90625 64.015625 53.90625 55.328125 
Q 53.90625 49.265625 50.4375 45.09375 
Q 46.96875 40.921875 40.578125 39.3125 
z
" id="DejaVuSans-33"/>
      </defs>
      <g style="fill:#262626;" transform="translate(349.500938 367.041594)scale(0.154 -0.154)">
       <use xlink:href="#DejaVuSans-33"/>
      </g>
     </g>
    </g>
    <g id="xtick_5">
     <g id="line2d_5">
      <g>
       <use style="fill:#262626;stroke:#262626;stroke-width:1.25;" x="438.100063" xlink:href="#ma7afe0703a" y="345.84"/>
      </g>
     </g>
     <g id="text_5">
      <!-- 4 -->
      <defs>
       <path d="M 37.796875 64.3125 
L 12.890625 25.390625 
L 37.796875 25.390625 
z
M 35.203125 72.90625 
L 47.609375 72.90625 
L 47.609375 25.390625 
L 58.015625 25.390625 
L 58.015625 17.1875 
L 47.609375 17.1875 
L 47.609375 0 
L 37.796875 0 
L 37.796875 17.1875 
L 4.890625 17.1875 
L 4.890625 26.703125 
z
" id="DejaVuSans-34"/>
      </defs>
      <g style="fill:#262626;" transform="translate(433.200938 367.041594)scale(0.154 -0.154)">
       <use xlink:href="#DejaVuSans-34"/>
      </g>
     </g>
    </g>
    <g id="xtick_6">
     <g id="line2d_6">
      <g>
       <use style="fill:#262626;stroke:#262626;stroke-width:1.25;" x="521.800063" xlink:href="#ma7afe0703a" y="345.84"/>
      </g>
     </g>
     <g id="text_6">
      <!-- 5 -->
      <defs>
       <path d="M 10.796875 72.90625 
L 49.515625 72.90625 
L 49.515625 64.59375 
L 19.828125 64.59375 
L 19.828125 46.734375 
Q 21.96875 47.46875 24.109375 47.828125 
Q 26.265625 48.1875 28.421875 48.1875 
Q 40.625 48.1875 47.75 41.5 
Q 54.890625 34.8125 54.890625 23.390625 
Q 54.890625 11.625 47.5625 5.09375 
Q 40.234375 -1.421875 26.90625 -1.421875 
Q 22.3125 -1.421875 17.546875 -0.640625 
Q 12.796875 0.140625 7.71875 1.703125 
L 7.71875 11.625 
Q 12.109375 9.234375 16.796875 8.0625 
Q 21.484375 6.890625 26.703125 6.890625 
Q 35.15625 6.890625 40.078125 11.328125 
Q 45.015625 15.765625 45.015625 23.390625 
Q 45.015625 31 40.078125 35.4375 
Q 35.15625 39.890625 26.703125 39.890625 
Q 22.75 39.890625 18.8125 39.015625 
Q 14.890625 38.140625 10.796875 36.28125 
z
" id="DejaVuSans-35"/>
      </defs>
      <g style="fill:#262626;" transform="translate(516.900938 367.041594)scale(0.154 -0.154)">
       <use xlink:href="#DejaVuSans-35"/>
      </g>
     </g>
    </g>
    <g id="text_7">
     <!-- Years since 1$^{st}$ visit -->
     <defs>
      <path d="M -0.203125 72.90625 
L 10.40625 72.90625 
L 30.609375 42.921875 
L 50.6875 72.90625 
L 61.28125 72.90625 
L 35.5 34.71875 
L 35.5 0 
L 25.59375 0 
L 25.59375 34.71875 
z
" id="DejaVuSans-59"/>
      <path d="M 56.203125 29.59375 
L 56.203125 25.203125 
L 14.890625 25.203125 
Q 15.484375 15.921875 20.484375 11.0625 
Q 25.484375 6.203125 34.421875 6.203125 
Q 39.59375 6.203125 44.453125 7.46875 
Q 49.3125 8.734375 54.109375 11.28125 
L 54.109375 2.78125 
Q 49.265625 0.734375 44.1875 -0.34375 
Q 39.109375 -1.421875 33.890625 -1.421875 
Q 20.796875 -1.421875 13.15625 6.1875 
Q 5.515625 13.8125 5.515625 26.8125 
Q 5.515625 40.234375 12.765625 48.109375 
Q 20.015625 56 32.328125 56 
Q 43.359375 56 49.78125 48.890625 
Q 56.203125 41.796875 56.203125 29.59375 
z
M 47.21875 32.234375 
Q 47.125 39.59375 43.09375 43.984375 
Q 39.0625 48.390625 32.421875 48.390625 
Q 24.90625 48.390625 20.390625 44.140625 
Q 15.875 39.890625 15.1875 32.171875 
z
" id="DejaVuSans-65"/>
      <path d="M 34.28125 27.484375 
Q 23.390625 27.484375 19.1875 25 
Q 14.984375 22.515625 14.984375 16.5 
Q 14.984375 11.71875 18.140625 8.90625 
Q 21.296875 6.109375 26.703125 6.109375 
Q 34.1875 6.109375 38.703125 11.40625 
Q 43.21875 16.703125 43.21875 25.484375 
L 43.21875 27.484375 
z
M 52.203125 31.203125 
L 52.203125 0 
L 43.21875 0 
L 43.21875 8.296875 
Q 40.140625 3.328125 35.546875 0.953125 
Q 30.953125 -1.421875 24.3125 -1.421875 
Q 15.921875 -1.421875 10.953125 3.296875 
Q 6 8.015625 6 15.921875 
Q 6 25.140625 12.171875 29.828125 
Q 18.359375 34.515625 30.609375 34.515625 
L 43.21875 34.515625 
L 43.21875 35.40625 
Q 43.21875 41.609375 39.140625 45 
Q 35.0625 48.390625 27.6875 48.390625 
Q 23 48.390625 18.546875 47.265625 
Q 14.109375 46.140625 10.015625 43.890625 
L 10.015625 52.203125 
Q 14.9375 54.109375 19.578125 55.046875 
Q 24.21875 56 28.609375 56 
Q 40.484375 56 46.34375 49.84375 
Q 52.203125 43.703125 52.203125 31.203125 
z
" id="DejaVuSans-61"/>
      <path d="M 41.109375 46.296875 
Q 39.59375 47.171875 37.8125 47.578125 
Q 36.03125 48 33.890625 48 
Q 26.265625 48 22.1875 43.046875 
Q 18.109375 38.09375 18.109375 28.8125 
L 18.109375 0 
L 9.078125 0 
L 9.078125 54.6875 
L 18.109375 54.6875 
L 18.109375 46.1875 
Q 20.953125 51.171875 25.484375 53.578125 
Q 30.03125 56 36.53125 56 
Q 37.453125 56 38.578125 55.875 
Q 39.703125 55.765625 41.0625 55.515625 
z
" id="DejaVuSans-72"/>
      <path d="M 44.28125 53.078125 
L 44.28125 44.578125 
Q 40.484375 46.53125 36.375 47.5 
Q 32.28125 48.484375 27.875 48.484375 
Q 21.1875 48.484375 17.84375 46.4375 
Q 14.5 44.390625 14.5 40.28125 
Q 14.5 37.15625 16.890625 35.375 
Q 19.28125 33.59375 26.515625 31.984375 
L 29.59375 31.296875 
Q 39.15625 29.25 43.1875 25.515625 
Q 47.21875 21.78125 47.21875 15.09375 
Q 47.21875 7.46875 41.1875 3.015625 
Q 35.15625 -1.421875 24.609375 -1.421875 
Q 20.21875 -1.421875 15.453125 -0.5625 
Q 10.6875 0.296875 5.421875 2 
L 5.421875 11.28125 
Q 10.40625 8.6875 15.234375 7.390625 
Q 20.0625 6.109375 24.8125 6.109375 
Q 31.15625 6.109375 34.5625 8.28125 
Q 37.984375 10.453125 37.984375 14.40625 
Q 37.984375 18.0625 35.515625 20.015625 
Q 33.0625 21.96875 24.703125 23.78125 
L 21.578125 24.515625 
Q 13.234375 26.265625 9.515625 29.90625 
Q 5.8125 33.546875 5.8125 39.890625 
Q 5.8125 47.609375 11.28125 51.796875 
Q 16.75 56 26.8125 56 
Q 31.78125 56 36.171875 55.265625 
Q 40.578125 54.546875 44.28125 53.078125 
z
" id="DejaVuSans-73"/>
      <path id="DejaVuSans-20"/>
      <path d="M 9.421875 54.6875 
L 18.40625 54.6875 
L 18.40625 0 
L 9.421875 0 
z
M 9.421875 75.984375 
L 18.40625 75.984375 
L 18.40625 64.59375 
L 9.421875 64.59375 
z
" id="DejaVuSans-69"/>
      <path d="M 54.890625 33.015625 
L 54.890625 0 
L 45.90625 0 
L 45.90625 32.71875 
Q 45.90625 40.484375 42.875 44.328125 
Q 39.84375 48.1875 33.796875 48.1875 
Q 26.515625 48.1875 22.3125 43.546875 
Q 18.109375 38.921875 18.109375 30.90625 
L 18.109375 0 
L 9.078125 0 
L 9.078125 54.6875 
L 18.109375 54.6875 
L 18.109375 46.1875 
Q 21.34375 51.125 25.703125 53.5625 
Q 30.078125 56 35.796875 56 
Q 45.21875 56 50.046875 50.171875 
Q 54.890625 44.34375 54.890625 33.015625 
z
" id="DejaVuSans-6e"/>
      <path d="M 48.78125 52.59375 
L 48.78125 44.1875 
Q 44.96875 46.296875 41.140625 47.34375 
Q 37.3125 48.390625 33.40625 48.390625 
Q 24.65625 48.390625 19.8125 42.84375 
Q 14.984375 37.3125 14.984375 27.296875 
Q 14.984375 17.28125 19.8125 11.734375 
Q 24.65625 6.203125 33.40625 6.203125 
Q 37.3125 6.203125 41.140625 7.25 
Q 44.96875 8.296875 48.78125 10.40625 
L 48.78125 2.09375 
Q 45.015625 0.34375 40.984375 -0.53125 
Q 36.96875 -1.421875 32.421875 -1.421875 
Q 20.0625 -1.421875 12.78125 6.34375 
Q 5.515625 14.109375 5.515625 27.296875 
Q 5.515625 40.671875 12.859375 48.328125 
Q 20.21875 56 33.015625 56 
Q 37.15625 56 41.109375 55.140625 
Q 45.0625 54.296875 48.78125 52.59375 
z
" id="DejaVuSans-63"/>
      <path d="M 50 53.078125 
L 48.296875 44.578125 
Q 44.734375 46.53125 40.765625 47.5 
Q 36.8125 48.484375 32.625 48.484375 
Q 25.53125 48.484375 21.453125 46.0625 
Q 17.390625 43.65625 17.390625 39.5 
Q 17.390625 34.671875 26.859375 32.078125 
Q 27.59375 31.890625 27.9375 31.78125 
L 30.8125 30.90625 
Q 39.796875 28.421875 42.796875 25.6875 
Q 45.796875 22.953125 45.796875 18.21875 
Q 45.796875 9.515625 38.890625 4.046875 
Q 31.984375 -1.421875 20.796875 -1.421875 
Q 16.453125 -1.421875 11.671875 -0.578125 
Q 6.890625 0.25 1.125 2 
L 2.875 11.28125 
Q 7.8125 8.734375 12.59375 7.421875 
Q 17.390625 6.109375 21.78125 6.109375 
Q 28.375 6.109375 32.5 8.9375 
Q 36.625 11.765625 36.625 16.109375 
Q 36.625 20.796875 25.78125 23.6875 
L 24.859375 23.921875 
L 21.78125 24.703125 
Q 14.9375 26.515625 11.765625 29.46875 
Q 8.59375 32.421875 8.59375 37.015625 
Q 8.59375 45.75 15.15625 50.875 
Q 21.734375 56 33.015625 56 
Q 37.453125 56 41.671875 55.265625 
Q 45.90625 54.546875 50 53.078125 
z
" id="DejaVuSans-Oblique-73"/>
      <path d="M 42.28125 54.6875 
L 40.921875 47.703125 
L 23 47.703125 
L 17.1875 18.015625 
Q 16.890625 16.359375 16.75 15.234375 
Q 16.609375 14.109375 16.609375 13.484375 
Q 16.609375 10.359375 18.484375 8.9375 
Q 20.359375 7.515625 24.515625 7.515625 
L 33.59375 7.515625 
L 32.078125 0 
L 23.484375 0 
Q 15.484375 0 11.546875 3.125 
Q 7.625 6.25 7.625 12.59375 
Q 7.625 13.71875 7.765625 15.0625 
Q 7.90625 16.40625 8.203125 18.015625 
L 14.015625 47.703125 
L 6.390625 47.703125 
L 7.8125 54.6875 
L 15.28125 54.6875 
L 18.3125 70.21875 
L 27.296875 70.21875 
L 24.3125 54.6875 
z
" id="DejaVuSans-Oblique-74"/>
      <path d="M 2.984375 54.6875 
L 12.5 54.6875 
L 29.59375 8.796875 
L 46.6875 54.6875 
L 56.203125 54.6875 
L 35.6875 0 
L 23.484375 0 
z
" id="DejaVuSans-76"/>
      <path d="M 18.3125 70.21875 
L 18.3125 54.6875 
L 36.8125 54.6875 
L 36.8125 47.703125 
L 18.3125 47.703125 
L 18.3125 18.015625 
Q 18.3125 11.328125 20.140625 9.421875 
Q 21.96875 7.515625 27.59375 7.515625 
L 36.8125 7.515625 
L 36.8125 0 
L 27.59375 0 
Q 17.1875 0 13.234375 3.875 
Q 9.28125 7.765625 9.28125 18.015625 
L 9.28125 47.703125 
L 2.6875 47.703125 
L 2.6875 54.6875 
L 9.28125 54.6875 
L 9.28125 70.21875 
z
" id="DejaVuSans-74"/>
     </defs>
     <g style="fill:#262626;" transform="translate(231.070063 387.009687)scale(0.168 -0.168)">
      <use transform="translate(0 0.565625)" xlink:href="#DejaVuSans-59"/>
      <use transform="translate(61.083984 0.565625)" xlink:href="#DejaVuSans-65"/>
      <use transform="translate(122.607422 0.565625)" xlink:href="#DejaVuSans-61"/>
      <use transform="translate(183.886719 0.565625)" xlink:href="#DejaVuSans-72"/>
      <use transform="translate(225 0.565625)" xlink:href="#DejaVuSans-73"/>
      <use transform="translate(277.099609 0.565625)" xlink:href="#DejaVuSans-20"/>
      <use transform="translate(308.886719 0.565625)" xlink:href="#DejaVuSans-73"/>
      <use transform="translate(360.986328 0.565625)" xlink:href="#DejaVuSans-69"/>
      <use transform="translate(388.769531 0.565625)" xlink:href="#DejaVuSans-6e"/>
      <use transform="translate(452.148438 0.565625)" xlink:href="#DejaVuSans-63"/>
      <use transform="translate(507.128906 0.565625)" xlink:href="#DejaVuSans-65"/>
      <use transform="translate(568.652344 0.565625)" xlink:href="#DejaVuSans-20"/>
      <use transform="translate(600.439453 0.565625)" xlink:href="#DejaVuSans-31"/>
      <use transform="translate(665.019531 38.846875)scale(0.7)" xlink:href="#DejaVuSans-Oblique-73"/>
      <use transform="translate(701.489258 38.846875)scale(0.7)" xlink:href="#DejaVuSans-Oblique-74"/>
      <use transform="translate(731.669922 0.565625)" xlink:href="#DejaVuSans-20"/>
      <use transform="translate(763.457031 0.565625)" xlink:href="#DejaVuSans-76"/>
      <use transform="translate(822.636719 0.565625)" xlink:href="#DejaVuSans-69"/>
      <use transform="translate(850.419922 0.565625)" xlink:href="#DejaVuSans-73"/>
      <use transform="translate(902.519531 0.565625)" xlink:href="#DejaVuSans-69"/>
      <use transform="translate(930.302734 0.565625)" xlink:href="#DejaVuSans-74"/>
     </g>
    </g>
   </g>
   <g id="matplotlib.axis_2">
    <g id="ytick_1">
     <g id="line2d_7">
      <path clip-path="url(#p3f487e50b7)" d="M 61.450063 345.84 
L 563.650063 345.84 
" style="fill:none;stroke:#cccccc;stroke-linecap:round;"/>
     </g>
     <g id="line2d_8">
      <defs>
       <path d="M 0 0 
L -6 0 
" id="m82bedd153d" style="stroke:#262626;stroke-width:1.25;"/>
      </defs>
      <g>
       <use style="fill:#262626;stroke:#262626;stroke-width:1.25;" x="61.450063" xlink:href="#m82bedd153d" y="345.84"/>
      </g>
     </g>
     <g id="text_8">
      <!-- 0.0 -->
      <defs>
       <path d="M 10.6875 12.40625 
L 21 12.40625 
L 21 0 
L 10.6875 0 
z
" id="DejaVuSans-2e"/>
      </defs>
      <g style="fill:#262626;" transform="translate(27.45925 351.690797)scale(0.154 -0.154)">
       <use xlink:href="#DejaVuSans-30"/>
       <use x="63.623047" xlink:href="#DejaVuSans-2e"/>
       <use x="95.410156" xlink:href="#DejaVuSans-30"/>
      </g>
     </g>
    </g>
    <g id="ytick_2">
     <g id="line2d_9">
      <path clip-path="url(#p3f487e50b7)" d="M 61.450063 279.312 
L 563.650063 279.312 
" style="fill:none;stroke:#cccccc;stroke-linecap:round;"/>
     </g>
     <g id="line2d_10">
      <g>
       <use style="fill:#262626;stroke:#262626;stroke-width:1.25;" x="61.450063" xlink:href="#m82bedd153d" y="279.312"/>
      </g>
     </g>
     <g id="text_9">
      <!-- 0.2 -->
      <g style="fill:#262626;" transform="translate(27.45925 285.162797)scale(0.154 -0.154)">
       <use xlink:href="#DejaVuSans-30"/>
       <use x="63.623047" xlink:href="#DejaVuSans-2e"/>
       <use x="95.410156" xlink:href="#DejaVuSans-32"/>
      </g>
     </g>
    </g>
    <g id="ytick_3">
     <g id="line2d_11">
      <path clip-path="url(#p3f487e50b7)" d="M 61.450063 212.784 
L 563.650063 212.784 
" style="fill:none;stroke:#cccccc;stroke-linecap:round;"/>
     </g>
     <g id="line2d_12">
      <g>
       <use style="fill:#262626;stroke:#262626;stroke-width:1.25;" x="61.450063" xlink:href="#m82bedd153d" y="212.784"/>
      </g>
     </g>
     <g id="text_10">
      <!-- 0.4 -->
      <g style="fill:#262626;" transform="translate(27.45925 218.634797)scale(0.154 -0.154)">
       <use xlink:href="#DejaVuSans-30"/>
       <use x="63.623047" xlink:href="#DejaVuSans-2e"/>
       <use x="95.410156" xlink:href="#DejaVuSans-34"/>
      </g>
     </g>
    </g>
    <g id="ytick_4">
     <g id="line2d_13">
      <path clip-path="url(#p3f487e50b7)" d="M 61.450063 146.256 
L 563.650063 146.256 
" style="fill:none;stroke:#cccccc;stroke-linecap:round;"/>
     </g>
     <g id="line2d_14">
      <g>
       <use style="fill:#262626;stroke:#262626;stroke-width:1.25;" x="61.450063" xlink:href="#m82bedd153d" y="146.256"/>
      </g>
     </g>
     <g id="text_11">
      <!-- 0.6 -->
      <defs>
       <path d="M 33.015625 40.375 
Q 26.375 40.375 22.484375 35.828125 
Q 18.609375 31.296875 18.609375 23.390625 
Q 18.609375 15.53125 22.484375 10.953125 
Q 26.375 6.390625 33.015625 6.390625 
Q 39.65625 6.390625 43.53125 10.953125 
Q 47.40625 15.53125 47.40625 23.390625 
Q 47.40625 31.296875 43.53125 35.828125 
Q 39.65625 40.375 33.015625 40.375 
z
M 52.59375 71.296875 
L 52.59375 62.3125 
Q 48.875 64.0625 45.09375 64.984375 
Q 41.3125 65.921875 37.59375 65.921875 
Q 27.828125 65.921875 22.671875 59.328125 
Q 17.53125 52.734375 16.796875 39.40625 
Q 19.671875 43.65625 24.015625 45.921875 
Q 28.375 48.1875 33.59375 48.1875 
Q 44.578125 48.1875 50.953125 41.515625 
Q 57.328125 34.859375 57.328125 23.390625 
Q 57.328125 12.15625 50.6875 5.359375 
Q 44.046875 -1.421875 33.015625 -1.421875 
Q 20.359375 -1.421875 13.671875 8.265625 
Q 6.984375 17.96875 6.984375 36.375 
Q 6.984375 53.65625 15.1875 63.9375 
Q 23.390625 74.21875 37.203125 74.21875 
Q 40.921875 74.21875 44.703125 73.484375 
Q 48.484375 72.75 52.59375 71.296875 
z
" id="DejaVuSans-36"/>
      </defs>
      <g style="fill:#262626;" transform="translate(27.45925 152.106797)scale(0.154 -0.154)">
       <use xlink:href="#DejaVuSans-30"/>
       <use x="63.623047" xlink:href="#DejaVuSans-2e"/>
       <use x="95.410156" xlink:href="#DejaVuSans-36"/>
      </g>
     </g>
    </g>
    <g id="ytick_5">
     <g id="line2d_15">
      <path clip-path="url(#p3f487e50b7)" d="M 61.450063 79.728 
L 563.650063 79.728 
" style="fill:none;stroke:#cccccc;stroke-linecap:round;"/>
     </g>
     <g id="line2d_16">
      <g>
       <use style="fill:#262626;stroke:#262626;stroke-width:1.25;" x="61.450063" xlink:href="#m82bedd153d" y="79.728"/>
      </g>
     </g>
     <g id="text_12">
      <!-- 0.8 -->
      <defs>
       <path d="M 31.78125 34.625 
Q 24.75 34.625 20.71875 30.859375 
Q 16.703125 27.09375 16.703125 20.515625 
Q 16.703125 13.921875 20.71875 10.15625 
Q 24.75 6.390625 31.78125 6.390625 
Q 38.8125 6.390625 42.859375 10.171875 
Q 46.921875 13.96875 46.921875 20.515625 
Q 46.921875 27.09375 42.890625 30.859375 
Q 38.875 34.625 31.78125 34.625 
z
M 21.921875 38.8125 
Q 15.578125 40.375 12.03125 44.71875 
Q 8.5 49.078125 8.5 55.328125 
Q 8.5 64.0625 14.71875 69.140625 
Q 20.953125 74.21875 31.78125 74.21875 
Q 42.671875 74.21875 48.875 69.140625 
Q 55.078125 64.0625 55.078125 55.328125 
Q 55.078125 49.078125 51.53125 44.71875 
Q 48 40.375 41.703125 38.8125 
Q 48.828125 37.15625 52.796875 32.3125 
Q 56.78125 27.484375 56.78125 20.515625 
Q 56.78125 9.90625 50.3125 4.234375 
Q 43.84375 -1.421875 31.78125 -1.421875 
Q 19.734375 -1.421875 13.25 4.234375 
Q 6.78125 9.90625 6.78125 20.515625 
Q 6.78125 27.484375 10.78125 32.3125 
Q 14.796875 37.15625 21.921875 38.8125 
z
M 18.3125 54.390625 
Q 18.3125 48.734375 21.84375 45.5625 
Q 25.390625 42.390625 31.78125 42.390625 
Q 38.140625 42.390625 41.71875 45.5625 
Q 45.3125 48.734375 45.3125 54.390625 
Q 45.3125 60.0625 41.71875 63.234375 
Q 38.140625 66.40625 31.78125 66.40625 
Q 25.390625 66.40625 21.84375 63.234375 
Q 18.3125 60.0625 18.3125 54.390625 
z
" id="DejaVuSans-38"/>
      </defs>
      <g style="fill:#262626;" transform="translate(27.45925 85.578797)scale(0.154 -0.154)">
       <use xlink:href="#DejaVuSans-30"/>
       <use x="63.623047" xlink:href="#DejaVuSans-2e"/>
       <use x="95.410156" xlink:href="#DejaVuSans-38"/>
      </g>
     </g>
    </g>
    <g id="ytick_6">
     <g id="line2d_17">
      <path clip-path="url(#p3f487e50b7)" d="M 61.450063 13.2 
L 563.650063 13.2 
" style="fill:none;stroke:#cccccc;stroke-linecap:round;"/>
     </g>
     <g id="line2d_18">
      <g>
       <use style="fill:#262626;stroke:#262626;stroke-width:1.25;" x="61.450063" xlink:href="#m82bedd153d" y="13.2"/>
      </g>
     </g>
     <g id="text_13">
      <!-- 1.0 -->
      <g style="fill:#262626;" transform="translate(27.45925 19.050797)scale(0.154 -0.154)">
       <use xlink:href="#DejaVuSans-31"/>
       <use x="63.623047" xlink:href="#DejaVuSans-2e"/>
       <use x="95.410156" xlink:href="#DejaVuSans-30"/>
      </g>
     </g>
    </g>
    <g id="text_14">
     <!-- AUC -->
     <defs>
      <path d="M 34.1875 63.1875 
L 20.796875 26.90625 
L 47.609375 26.90625 
z
M 28.609375 72.90625 
L 39.796875 72.90625 
L 67.578125 0 
L 57.328125 0 
L 50.6875 18.703125 
L 17.828125 18.703125 
L 11.1875 0 
L 0.78125 0 
z
" id="DejaVuSans-41"/>
      <path d="M 8.6875 72.90625 
L 18.609375 72.90625 
L 18.609375 28.609375 
Q 18.609375 16.890625 22.84375 11.734375 
Q 27.09375 6.59375 36.625 6.59375 
Q 46.09375 6.59375 50.34375 11.734375 
Q 54.59375 16.890625 54.59375 28.609375 
L 54.59375 72.90625 
L 64.5 72.90625 
L 64.5 27.390625 
Q 64.5 13.140625 57.4375 5.859375 
Q 50.390625 -1.421875 36.625 -1.421875 
Q 22.796875 -1.421875 15.734375 5.859375 
Q 8.6875 13.140625 8.6875 27.390625 
z
" id="DejaVuSans-55"/>
      <path d="M 64.40625 67.28125 
L 64.40625 56.890625 
Q 59.421875 61.53125 53.78125 63.8125 
Q 48.140625 66.109375 41.796875 66.109375 
Q 29.296875 66.109375 22.65625 58.46875 
Q 16.015625 50.828125 16.015625 36.375 
Q 16.015625 21.96875 22.65625 14.328125 
Q 29.296875 6.6875 41.796875 6.6875 
Q 48.140625 6.6875 53.78125 8.984375 
Q 59.421875 11.28125 64.40625 15.921875 
L 64.40625 5.609375 
Q 59.234375 2.09375 53.4375 0.328125 
Q 47.65625 -1.421875 41.21875 -1.421875 
Q 24.65625 -1.421875 15.125 8.703125 
Q 5.609375 18.84375 5.609375 36.375 
Q 5.609375 53.953125 15.125 64.078125 
Q 24.65625 74.21875 41.21875 74.21875 
Q 47.75 74.21875 53.53125 72.484375 
Q 59.328125 70.75 64.40625 67.28125 
z
" id="DejaVuSans-43"/>
     </defs>
     <g style="fill:#262626;" transform="translate(19.965375 197.279437)rotate(-90)scale(0.168 -0.168)">
      <use xlink:href="#DejaVuSans-41"/>
      <use x="68.408203" xlink:href="#DejaVuSans-55"/>
      <use x="141.601562" xlink:href="#DejaVuSans-43"/>
     </g>
    </g>
   </g>
   <g id="patch_3">
    <path clip-path="url(#p3f487e50b7)" d="M 76.278913 38.150068 
L 94.051213 38.150068 
L 94.051213 33.387991 
L 76.278913 33.387991 
L 76.278913 38.150068 
z
" style="fill:#18717b;stroke:#2c2c2c;stroke-linejoin:miter;stroke-width:0.85;"/>
   </g>
   <g id="patch_4">
    <path clip-path="url(#p3f487e50b7)" d="M 94.413913 155.118727 
L 112.186213 155.118727 
L 112.186213 142.740724 
L 94.413913 142.740724 
L 94.413913 155.118727 
z
" style="fill:#e5d070;stroke:#2c2c2c;stroke-linejoin:miter;stroke-width:0.85;"/>
   </g>
   <g id="patch_5">
    <path clip-path="url(#p3f487e50b7)" d="M 112.548913 36.74121 
L 130.321213 36.74121 
L 130.321213 32.41689 
L 112.548913 32.41689 
L 112.548913 36.74121 
z
" style="fill:#d45c66;stroke:#2c2c2c;stroke-linejoin:miter;stroke-width:0.85;"/>
   </g>
   <g id="patch_6">
    <path clip-path="url(#p3f487e50b7)" d="M 159.978913 69.9 
L 177.751213 69.9 
L 177.751213 61.285962 
L 159.978913 61.285962 
L 159.978913 69.9 
z
" style="fill:#18717b;stroke:#2c2c2c;stroke-linejoin:miter;stroke-width:0.85;"/>
   </g>
   <g id="patch_7">
    <path clip-path="url(#p3f487e50b7)" d="M 178.113913 184.183703 
L 195.886213 184.183703 
L 195.886213 162.494676 
L 178.113913 162.494676 
L 178.113913 184.183703 
z
" style="fill:#e5d070;stroke:#2c2c2c;stroke-linejoin:miter;stroke-width:0.85;"/>
   </g>
   <g id="patch_8">
    <path clip-path="url(#p3f487e50b7)" d="M 196.248913 44.107906 
L 214.021213 44.107906 
L 214.021213 33.520817 
L 196.248913 33.520817 
L 196.248913 44.107906 
z
" style="fill:#d45c66;stroke:#2c2c2c;stroke-linejoin:miter;stroke-width:0.85;"/>
   </g>
   <g id="patch_9">
    <path clip-path="url(#p3f487e50b7)" d="M 243.678913 53.50769 
L 261.451213 53.50769 
L 261.451213 47.314761 
L 243.678913 47.314761 
L 243.678913 53.50769 
z
" style="fill:#18717b;stroke:#2c2c2c;stroke-linejoin:miter;stroke-width:0.85;"/>
   </g>
   <g id="patch_10">
    <path clip-path="url(#p3f487e50b7)" d="M 261.813913 165.802265 
L 279.586213 165.802265 
L 279.586213 153.826864 
L 261.813913 153.826864 
L 261.813913 165.802265 
z
" style="fill:#e5d070;stroke:#2c2c2c;stroke-linejoin:miter;stroke-width:0.85;"/>
   </g>
   <g id="patch_11">
    <path clip-path="url(#p3f487e50b7)" d="M 279.948913 52.026986 
L 297.721213 52.026986 
L 297.721213 45.302671 
L 279.948913 45.302671 
L 279.948913 52.026986 
z
" style="fill:#d45c66;stroke:#2c2c2c;stroke-linejoin:miter;stroke-width:0.85;"/>
   </g>
   <g id="patch_12">
    <path clip-path="url(#p3f487e50b7)" d="M 327.378913 50.653921 
L 345.151213 50.653921 
L 345.151213 39.326897 
L 327.378913 39.326897 
L 327.378913 50.653921 
z
" style="fill:#18717b;stroke:#2c2c2c;stroke-linejoin:miter;stroke-width:0.85;"/>
   </g>
   <g id="patch_13">
    <path clip-path="url(#p3f487e50b7)" d="M 345.513913 174.754216 
L 363.286213 174.754216 
L 363.286213 146.79181 
L 345.513913 146.79181 
L 345.513913 174.754216 
z
" style="fill:#e5d070;stroke:#2c2c2c;stroke-linejoin:miter;stroke-width:0.85;"/>
   </g>
   <g id="patch_14">
    <path clip-path="url(#p3f487e50b7)" d="M 363.648913 43.038812 
L 381.421213 43.038812 
L 381.421213 34.178189 
L 363.648913 34.178189 
L 363.648913 43.038812 
z
" style="fill:#d45c66;stroke:#2c2c2c;stroke-linejoin:miter;stroke-width:0.85;"/>
   </g>
   <g id="patch_15">
    <path clip-path="url(#p3f487e50b7)" d="M 411.078913 50.658157 
L 428.851213 50.658157 
L 428.851213 39.403148 
L 411.078913 39.403148 
L 411.078913 50.658157 
z
" style="fill:#18717b;stroke:#2c2c2c;stroke-linejoin:miter;stroke-width:0.85;"/>
   </g>
   <g id="patch_16">
    <path clip-path="url(#p3f487e50b7)" d="M 429.213913 169.74287 
L 446.986213 169.74287 
L 446.986213 136.578574 
L 429.213913 136.578574 
L 429.213913 169.74287 
z
" style="fill:#e5d070;stroke:#2c2c2c;stroke-linejoin:miter;stroke-width:0.85;"/>
   </g>
   <g id="patch_17">
    <path clip-path="url(#p3f487e50b7)" d="M 447.348913 78.408917 
L 465.121213 78.408917 
L 465.121213 61.591327 
L 447.348913 61.591327 
L 447.348913 78.408917 
z
" style="fill:#d45c66;stroke:#2c2c2c;stroke-linejoin:miter;stroke-width:0.85;"/>
   </g>
   <g id="patch_18">
    <path clip-path="url(#p3f487e50b7)" d="M 494.778913 80.083618 
L 512.551213 80.083618 
L 512.551213 65.026264 
L 494.778913 65.026264 
L 494.778913 80.083618 
z
" style="fill:#18717b;stroke:#2c2c2c;stroke-linejoin:miter;stroke-width:0.85;"/>
   </g>
   <g id="patch_19">
    <path clip-path="url(#p3f487e50b7)" d="M 512.913913 165.76953 
L 530.686213 165.76953 
L 530.686213 131.274345 
L 512.913913 131.274345 
L 512.913913 165.76953 
z
" style="fill:#e5d070;stroke:#2c2c2c;stroke-linejoin:miter;stroke-width:0.85;"/>
   </g>
   <g id="patch_20">
    <path clip-path="url(#p3f487e50b7)" d="M 531.048913 83.508 
L 548.821213 83.508 
L 548.821213 60.973047 
L 531.048913 60.973047 
L 531.048913 83.508 
z
" style="fill:#d45c66;stroke:#2c2c2c;stroke-linejoin:miter;stroke-width:0.85;"/>
   </g>
   <g id="patch_21">
    <path clip-path="url(#p3f487e50b7)" d="M 103.300063 345.84 
L 103.300063 345.84 
L 103.300063 345.84 
L 103.300063 345.84 
z
" style="fill:#18717b;stroke:#2c2c2c;stroke-linejoin:miter;stroke-width:0.425;"/>
   </g>
   <g id="patch_22">
    <path clip-path="url(#p3f487e50b7)" d="M 103.300063 345.84 
L 103.300063 345.84 
L 103.300063 345.84 
L 103.300063 345.84 
z
" style="fill:#e5d070;stroke:#2c2c2c;stroke-linejoin:miter;stroke-width:0.425;"/>
   </g>
   <g id="patch_23">
    <path clip-path="url(#p3f487e50b7)" d="M 103.300063 345.84 
L 103.300063 345.84 
L 103.300063 345.84 
L 103.300063 345.84 
z
" style="fill:#d45c66;stroke:#2c2c2c;stroke-linejoin:miter;stroke-width:0.425;"/>
   </g>
   <g id="line2d_19">
    <path clip-path="url(#p3f487e50b7)" d="M 85.165063 38.150068 
L 85.165063 44.003574 
" style="fill:none;stroke:#2c2c2c;stroke-linecap:round;stroke-width:0.85;"/>
   </g>
   <g id="line2d_20">
    <path clip-path="url(#p3f487e50b7)" d="M 85.165063 33.387991 
L 85.165063 28.824668 
" style="fill:none;stroke:#2c2c2c;stroke-linecap:round;stroke-width:0.85;"/>
   </g>
   <g id="line2d_21">
    <path clip-path="url(#p3f487e50b7)" d="M 80.721988 44.003574 
L 89.608138 44.003574 
" style="fill:none;stroke:#2c2c2c;stroke-linecap:round;stroke-width:0.85;"/>
   </g>
   <g id="line2d_22">
    <path clip-path="url(#p3f487e50b7)" d="M 80.721988 28.824668 
L 89.608138 28.824668 
" style="fill:none;stroke:#2c2c2c;stroke-linecap:round;stroke-width:0.85;"/>
   </g>
   <g id="line2d_23"/>
   <g id="line2d_24">
    <path clip-path="url(#p3f487e50b7)" d="M 103.300063 155.118727 
L 103.300063 168.525895 
" style="fill:none;stroke:#2c2c2c;stroke-linecap:round;stroke-width:0.85;"/>
   </g>
   <g id="line2d_25">
    <path clip-path="url(#p3f487e50b7)" d="M 103.300063 142.740724 
L 103.300063 131.602098 
" style="fill:none;stroke:#2c2c2c;stroke-linecap:round;stroke-width:0.85;"/>
   </g>
   <g id="line2d_26">
    <path clip-path="url(#p3f487e50b7)" d="M 98.856988 168.525895 
L 107.743138 168.525895 
" style="fill:none;stroke:#2c2c2c;stroke-linecap:round;stroke-width:0.85;"/>
   </g>
   <g id="line2d_27">
    <path clip-path="url(#p3f487e50b7)" d="M 98.856988 131.602098 
L 107.743138 131.602098 
" style="fill:none;stroke:#2c2c2c;stroke-linecap:round;stroke-width:0.85;"/>
   </g>
   <g id="line2d_28">
    <defs>
     <path d="M -0 2.828427 
L 1.697056 0 
L 0 -2.828427 
L -1.697056 -0 
z
" id="m5ea627b1bf" style="stroke:#2c2c2c;stroke-linejoin:miter;"/>
    </defs>
    <g clip-path="url(#p3f487e50b7)">
     <use style="fill:#2c2c2c;stroke:#2c2c2c;stroke-linejoin:miter;" x="103.300063" xlink:href="#m5ea627b1bf" y="173.903827"/>
    </g>
   </g>
   <g id="line2d_29">
    <path clip-path="url(#p3f487e50b7)" d="M 121.435063 36.74121 
L 121.435063 42.594288 
" style="fill:none;stroke:#2c2c2c;stroke-linecap:round;stroke-width:0.85;"/>
   </g>
   <g id="line2d_30">
    <path clip-path="url(#p3f487e50b7)" d="M 121.435063 32.41689 
L 121.435063 27.303936 
" style="fill:none;stroke:#2c2c2c;stroke-linecap:round;stroke-width:0.85;"/>
   </g>
   <g id="line2d_31">
    <path clip-path="url(#p3f487e50b7)" d="M 116.991988 42.594288 
L 125.878138 42.594288 
" style="fill:none;stroke:#2c2c2c;stroke-linecap:round;stroke-width:0.85;"/>
   </g>
   <g id="line2d_32">
    <path clip-path="url(#p3f487e50b7)" d="M 116.991988 27.303936 
L 125.878138 27.303936 
" style="fill:none;stroke:#2c2c2c;stroke-linecap:round;stroke-width:0.85;"/>
   </g>
   <g id="line2d_33">
    <g clip-path="url(#p3f487e50b7)">
     <use style="fill:#2c2c2c;stroke:#2c2c2c;stroke-linejoin:miter;" x="121.435063" xlink:href="#m5ea627b1bf" y="45.32748"/>
    </g>
   </g>
   <g id="line2d_34">
    <path clip-path="url(#p3f487e50b7)" d="M 168.865063 69.9 
L 168.865063 82.112308 
" style="fill:none;stroke:#2c2c2c;stroke-linecap:round;stroke-width:0.85;"/>
   </g>
   <g id="line2d_35">
    <path clip-path="url(#p3f487e50b7)" d="M 168.865063 61.285962 
L 168.865063 49.982308 
" style="fill:none;stroke:#2c2c2c;stroke-linecap:round;stroke-width:0.85;"/>
   </g>
   <g id="line2d_36">
    <path clip-path="url(#p3f487e50b7)" d="M 164.421988 82.112308 
L 173.308138 82.112308 
" style="fill:none;stroke:#2c2c2c;stroke-linecap:round;stroke-width:0.85;"/>
   </g>
   <g id="line2d_37">
    <path clip-path="url(#p3f487e50b7)" d="M 164.421988 49.982308 
L 173.308138 49.982308 
" style="fill:none;stroke:#2c2c2c;stroke-linecap:round;stroke-width:0.85;"/>
   </g>
   <g id="line2d_38">
    <g clip-path="url(#p3f487e50b7)">
     <use style="fill:#2c2c2c;stroke:#2c2c2c;stroke-linejoin:miter;" x="168.865063" xlink:href="#m5ea627b1bf" y="87.055385"/>
     <use style="fill:#2c2c2c;stroke:#2c2c2c;stroke-linejoin:miter;" x="168.865063" xlink:href="#m5ea627b1bf" y="47.22"/>
    </g>
   </g>
   <g id="line2d_39">
    <path clip-path="url(#p3f487e50b7)" d="M 187.000063 184.183703 
L 187.000063 204.823385 
" style="fill:none;stroke:#2c2c2c;stroke-linecap:round;stroke-width:0.85;"/>
   </g>
   <g id="line2d_40">
    <path clip-path="url(#p3f487e50b7)" d="M 187.000063 162.494676 
L 187.000063 133.064123 
" style="fill:none;stroke:#2c2c2c;stroke-linecap:round;stroke-width:0.85;"/>
   </g>
   <g id="line2d_41">
    <path clip-path="url(#p3f487e50b7)" d="M 182.556988 204.823385 
L 191.443138 204.823385 
" style="fill:none;stroke:#2c2c2c;stroke-linecap:round;stroke-width:0.85;"/>
   </g>
   <g id="line2d_42">
    <path clip-path="url(#p3f487e50b7)" d="M 182.556988 133.064123 
L 191.443138 133.064123 
" style="fill:none;stroke:#2c2c2c;stroke-linecap:round;stroke-width:0.85;"/>
   </g>
   <g id="line2d_43"/>
   <g id="line2d_44">
    <path clip-path="url(#p3f487e50b7)" d="M 205.135063 44.107906 
L 205.135063 53.1168 
" style="fill:none;stroke:#2c2c2c;stroke-linecap:round;stroke-width:0.85;"/>
   </g>
   <g id="line2d_45">
    <path clip-path="url(#p3f487e50b7)" d="M 205.135063 33.520817 
L 205.135063 22.9416 
" style="fill:none;stroke:#2c2c2c;stroke-linecap:round;stroke-width:0.85;"/>
   </g>
   <g id="line2d_46">
    <path clip-path="url(#p3f487e50b7)" d="M 200.691988 53.1168 
L 209.578138 53.1168 
" style="fill:none;stroke:#2c2c2c;stroke-linecap:round;stroke-width:0.85;"/>
   </g>
   <g id="line2d_47">
    <path clip-path="url(#p3f487e50b7)" d="M 200.691988 22.9416 
L 209.578138 22.9416 
" style="fill:none;stroke:#2c2c2c;stroke-linecap:round;stroke-width:0.85;"/>
   </g>
   <g id="line2d_48">
    <g clip-path="url(#p3f487e50b7)">
     <use style="fill:#2c2c2c;stroke:#2c2c2c;stroke-linejoin:miter;" x="205.135063" xlink:href="#m5ea627b1bf" y="60.575232"/>
     <use style="fill:#2c2c2c;stroke:#2c2c2c;stroke-linejoin:miter;" x="205.135063" xlink:href="#m5ea627b1bf" y="60.828576"/>
    </g>
   </g>
   <g id="line2d_49">
    <path clip-path="url(#p3f487e50b7)" d="M 252.565063 53.50769 
L 252.565063 61.363819 
" style="fill:none;stroke:#2c2c2c;stroke-linecap:round;stroke-width:0.85;"/>
   </g>
   <g id="line2d_50">
    <path clip-path="url(#p3f487e50b7)" d="M 252.565063 47.314761 
L 252.565063 41.55871 
" style="fill:none;stroke:#2c2c2c;stroke-linecap:round;stroke-width:0.85;"/>
   </g>
   <g id="line2d_51">
    <path clip-path="url(#p3f487e50b7)" d="M 248.121988 61.363819 
L 257.008138 61.363819 
" style="fill:none;stroke:#2c2c2c;stroke-linecap:round;stroke-width:0.85;"/>
   </g>
   <g id="line2d_52">
    <path clip-path="url(#p3f487e50b7)" d="M 248.121988 41.55871 
L 257.008138 41.55871 
" style="fill:none;stroke:#2c2c2c;stroke-linecap:round;stroke-width:0.85;"/>
   </g>
   <g id="line2d_53">
    <g clip-path="url(#p3f487e50b7)">
     <use style="fill:#2c2c2c;stroke:#2c2c2c;stroke-linejoin:miter;" x="252.565063" xlink:href="#m5ea627b1bf" y="72.523355"/>
     <use style="fill:#2c2c2c;stroke:#2c2c2c;stroke-linejoin:miter;" x="252.565063" xlink:href="#m5ea627b1bf" y="64.828181"/>
    </g>
   </g>
   <g id="line2d_54">
    <path clip-path="url(#p3f487e50b7)" d="M 270.700063 165.802265 
L 270.700063 181.488284 
" style="fill:none;stroke:#2c2c2c;stroke-linecap:round;stroke-width:0.85;"/>
   </g>
   <g id="line2d_55">
    <path clip-path="url(#p3f487e50b7)" d="M 270.700063 153.826864 
L 270.700063 137.061302 
" style="fill:none;stroke:#2c2c2c;stroke-linecap:round;stroke-width:0.85;"/>
   </g>
   <g id="line2d_56">
    <path clip-path="url(#p3f487e50b7)" d="M 266.256988 181.488284 
L 275.143138 181.488284 
" style="fill:none;stroke:#2c2c2c;stroke-linecap:round;stroke-width:0.85;"/>
   </g>
   <g id="line2d_57">
    <path clip-path="url(#p3f487e50b7)" d="M 266.256988 137.061302 
L 275.143138 137.061302 
" style="fill:none;stroke:#2c2c2c;stroke-linecap:round;stroke-width:0.85;"/>
   </g>
   <g id="line2d_58">
    <g clip-path="url(#p3f487e50b7)">
     <use style="fill:#2c2c2c;stroke:#2c2c2c;stroke-linejoin:miter;" x="270.700063" xlink:href="#m5ea627b1bf" y="186.087642"/>
     <use style="fill:#2c2c2c;stroke:#2c2c2c;stroke-linejoin:miter;" x="270.700063" xlink:href="#m5ea627b1bf" y="187.714489"/>
     <use style="fill:#2c2c2c;stroke:#2c2c2c;stroke-linejoin:miter;" x="270.700063" xlink:href="#m5ea627b1bf" y="186.850854"/>
     <use style="fill:#2c2c2c;stroke:#2c2c2c;stroke-linejoin:miter;" x="270.700063" xlink:href="#m5ea627b1bf" y="127.400642"/>
     <use style="fill:#2c2c2c;stroke:#2c2c2c;stroke-linejoin:miter;" x="270.700063" xlink:href="#m5ea627b1bf" y="133.747354"/>
    </g>
   </g>
   <g id="line2d_59">
    <path clip-path="url(#p3f487e50b7)" d="M 288.835063 52.026986 
L 288.835063 59.558219 
" style="fill:none;stroke:#2c2c2c;stroke-linecap:round;stroke-width:0.85;"/>
   </g>
   <g id="line2d_60">
    <path clip-path="url(#p3f487e50b7)" d="M 288.835063 45.302671 
L 288.835063 35.540548 
" style="fill:none;stroke:#2c2c2c;stroke-linecap:round;stroke-width:0.85;"/>
   </g>
   <g id="line2d_61">
    <path clip-path="url(#p3f487e50b7)" d="M 284.391988 59.558219 
L 293.278138 59.558219 
" style="fill:none;stroke:#2c2c2c;stroke-linecap:round;stroke-width:0.85;"/>
   </g>
   <g id="line2d_62">
    <path clip-path="url(#p3f487e50b7)" d="M 284.391988 35.540548 
L 293.278138 35.540548 
" style="fill:none;stroke:#2c2c2c;stroke-linecap:round;stroke-width:0.85;"/>
   </g>
   <g id="line2d_63">
    <g clip-path="url(#p3f487e50b7)">
     <use style="fill:#2c2c2c;stroke:#2c2c2c;stroke-linejoin:miter;" x="288.835063" xlink:href="#m5ea627b1bf" y="63.545342"/>
    </g>
   </g>
   <g id="line2d_64">
    <path clip-path="url(#p3f487e50b7)" d="M 336.265063 50.653921 
L 336.265063 63.542069 
" style="fill:none;stroke:#2c2c2c;stroke-linecap:round;stroke-width:0.85;"/>
   </g>
   <g id="line2d_65">
    <path clip-path="url(#p3f487e50b7)" d="M 336.265063 39.326897 
L 336.265063 28.493793 
" style="fill:none;stroke:#2c2c2c;stroke-linecap:round;stroke-width:0.85;"/>
   </g>
   <g id="line2d_66">
    <path clip-path="url(#p3f487e50b7)" d="M 331.821988 63.542069 
L 340.708138 63.542069 
" style="fill:none;stroke:#2c2c2c;stroke-linecap:round;stroke-width:0.85;"/>
   </g>
   <g id="line2d_67">
    <path clip-path="url(#p3f487e50b7)" d="M 331.821988 28.493793 
L 340.708138 28.493793 
" style="fill:none;stroke:#2c2c2c;stroke-linecap:round;stroke-width:0.85;"/>
   </g>
   <g id="line2d_68">
    <g clip-path="url(#p3f487e50b7)">
     <use style="fill:#2c2c2c;stroke:#2c2c2c;stroke-linejoin:miter;" x="336.265063" xlink:href="#m5ea627b1bf" y="69.914483"/>
    </g>
   </g>
   <g id="line2d_69">
    <path clip-path="url(#p3f487e50b7)" d="M 354.400063 174.754216 
L 354.400063 207.033443 
" style="fill:none;stroke:#2c2c2c;stroke-linecap:round;stroke-width:0.85;"/>
   </g>
   <g id="line2d_70">
    <path clip-path="url(#p3f487e50b7)" d="M 354.400063 146.79181 
L 354.400063 117.057049 
" style="fill:none;stroke:#2c2c2c;stroke-linecap:round;stroke-width:0.85;"/>
   </g>
   <g id="line2d_71">
    <path clip-path="url(#p3f487e50b7)" d="M 349.956988 207.033443 
L 358.843138 207.033443 
" style="fill:none;stroke:#2c2c2c;stroke-linecap:round;stroke-width:0.85;"/>
   </g>
   <g id="line2d_72">
    <path clip-path="url(#p3f487e50b7)" d="M 349.956988 117.057049 
L 358.843138 117.057049 
" style="fill:none;stroke:#2c2c2c;stroke-linecap:round;stroke-width:0.85;"/>
   </g>
   <g id="line2d_73"/>
   <g id="line2d_74">
    <path clip-path="url(#p3f487e50b7)" d="M 372.535063 43.038812 
L 372.535063 55.144382 
" style="fill:none;stroke:#2c2c2c;stroke-linecap:round;stroke-width:0.85;"/>
   </g>
   <g id="line2d_75">
    <path clip-path="url(#p3f487e50b7)" d="M 372.535063 34.178189 
L 372.535063 26.317741 
" style="fill:none;stroke:#2c2c2c;stroke-linecap:round;stroke-width:0.85;"/>
   </g>
   <g id="line2d_76">
    <path clip-path="url(#p3f487e50b7)" d="M 368.091988 55.144382 
L 376.978138 55.144382 
" style="fill:none;stroke:#2c2c2c;stroke-linecap:round;stroke-width:0.85;"/>
   </g>
   <g id="line2d_77">
    <path clip-path="url(#p3f487e50b7)" d="M 368.091988 26.317741 
L 376.978138 26.317741 
" style="fill:none;stroke:#2c2c2c;stroke-linecap:round;stroke-width:0.85;"/>
   </g>
   <g id="line2d_78">
    <g clip-path="url(#p3f487e50b7)">
     <use style="fill:#2c2c2c;stroke:#2c2c2c;stroke-linejoin:miter;" x="372.535063" xlink:href="#m5ea627b1bf" y="60.742564"/>
    </g>
   </g>
   <g id="line2d_79">
    <path clip-path="url(#p3f487e50b7)" d="M 419.965063 50.658157 
L 419.965063 64.482 
" style="fill:none;stroke:#2c2c2c;stroke-linecap:round;stroke-width:0.85;"/>
   </g>
   <g id="line2d_80">
    <path clip-path="url(#p3f487e50b7)" d="M 419.965063 39.403148 
L 419.965063 26.07 
" style="fill:none;stroke:#2c2c2c;stroke-linecap:round;stroke-width:0.85;"/>
   </g>
   <g id="line2d_81">
    <path clip-path="url(#p3f487e50b7)" d="M 415.521988 64.482 
L 424.408138 64.482 
" style="fill:none;stroke:#2c2c2c;stroke-linecap:round;stroke-width:0.85;"/>
   </g>
   <g id="line2d_82">
    <path clip-path="url(#p3f487e50b7)" d="M 415.521988 26.07 
L 424.408138 26.07 
" style="fill:none;stroke:#2c2c2c;stroke-linecap:round;stroke-width:0.85;"/>
   </g>
   <g id="line2d_83">
    <g clip-path="url(#p3f487e50b7)">
     <use style="fill:#2c2c2c;stroke:#2c2c2c;stroke-linejoin:miter;" x="419.965063" xlink:href="#m5ea627b1bf" y="70.279096"/>
    </g>
   </g>
   <g id="line2d_84">
    <path clip-path="url(#p3f487e50b7)" d="M 438.100063 169.74287 
L 438.100063 217.817368 
" style="fill:none;stroke:#2c2c2c;stroke-linecap:round;stroke-width:0.85;"/>
   </g>
   <g id="line2d_85">
    <path clip-path="url(#p3f487e50b7)" d="M 438.100063 136.578574 
L 438.100063 104.019474 
" style="fill:none;stroke:#2c2c2c;stroke-linecap:round;stroke-width:0.85;"/>
   </g>
   <g id="line2d_86">
    <path clip-path="url(#p3f487e50b7)" d="M 433.656988 217.817368 
L 442.543138 217.817368 
" style="fill:none;stroke:#2c2c2c;stroke-linecap:round;stroke-width:0.85;"/>
   </g>
   <g id="line2d_87">
    <path clip-path="url(#p3f487e50b7)" d="M 433.656988 104.019474 
L 442.543138 104.019474 
" style="fill:none;stroke:#2c2c2c;stroke-linecap:round;stroke-width:0.85;"/>
   </g>
   <g id="line2d_88">
    <g clip-path="url(#p3f487e50b7)">
     <use style="fill:#2c2c2c;stroke:#2c2c2c;stroke-linejoin:miter;" x="438.100063" xlink:href="#m5ea627b1bf" y="220.13394"/>
    </g>
   </g>
   <g id="line2d_89">
    <path clip-path="url(#p3f487e50b7)" d="M 456.235063 78.408917 
L 456.235063 102.914872 
" style="fill:none;stroke:#2c2c2c;stroke-linecap:round;stroke-width:0.85;"/>
   </g>
   <g id="line2d_90">
    <path clip-path="url(#p3f487e50b7)" d="M 456.235063 61.591327 
L 456.235063 39.735385 
" style="fill:none;stroke:#2c2c2c;stroke-linecap:round;stroke-width:0.85;"/>
   </g>
   <g id="line2d_91">
    <path clip-path="url(#p3f487e50b7)" d="M 451.791988 102.914872 
L 460.678138 102.914872 
" style="fill:none;stroke:#2c2c2c;stroke-linecap:round;stroke-width:0.85;"/>
   </g>
   <g id="line2d_92">
    <path clip-path="url(#p3f487e50b7)" d="M 451.791988 39.735385 
L 460.678138 39.735385 
" style="fill:none;stroke:#2c2c2c;stroke-linecap:round;stroke-width:0.85;"/>
   </g>
   <g id="line2d_93"/>
   <g id="line2d_94">
    <path clip-path="url(#p3f487e50b7)" d="M 503.665063 80.083618 
L 503.665063 102.378158 
" style="fill:none;stroke:#2c2c2c;stroke-linecap:round;stroke-width:0.85;"/>
   </g>
   <g id="line2d_95">
    <path clip-path="url(#p3f487e50b7)" d="M 503.665063 65.026264 
L 503.665063 49.856053 
" style="fill:none;stroke:#2c2c2c;stroke-linecap:round;stroke-width:0.85;"/>
   </g>
   <g id="line2d_96">
    <path clip-path="url(#p3f487e50b7)" d="M 499.221988 102.378158 
L 508.108138 102.378158 
" style="fill:none;stroke:#2c2c2c;stroke-linecap:round;stroke-width:0.85;"/>
   </g>
   <g id="line2d_97">
    <path clip-path="url(#p3f487e50b7)" d="M 499.221988 49.856053 
L 508.108138 49.856053 
" style="fill:none;stroke:#2c2c2c;stroke-linecap:round;stroke-width:0.85;"/>
   </g>
   <g id="line2d_98">
    <g clip-path="url(#p3f487e50b7)">
     <use style="fill:#2c2c2c;stroke:#2c2c2c;stroke-linejoin:miter;" x="503.665063" xlink:href="#m5ea627b1bf" y="120.025564"/>
     <use style="fill:#2c2c2c;stroke:#2c2c2c;stroke-linejoin:miter;" x="503.665063" xlink:href="#m5ea627b1bf" y="130.602353"/>
     <use style="fill:#2c2c2c;stroke:#2c2c2c;stroke-linejoin:miter;" x="503.665063" xlink:href="#m5ea627b1bf" y="118.791316"/>
     <use style="fill:#2c2c2c;stroke:#2c2c2c;stroke-linejoin:miter;" x="503.665063" xlink:href="#m5ea627b1bf" y="102.925263"/>
    </g>
   </g>
   <g id="line2d_99">
    <path clip-path="url(#p3f487e50b7)" d="M 521.800063 165.76953 
L 521.800063 206.478462 
" style="fill:none;stroke:#2c2c2c;stroke-linecap:round;stroke-width:0.85;"/>
   </g>
   <g id="line2d_100">
    <path clip-path="url(#p3f487e50b7)" d="M 521.800063 131.274345 
L 521.800063 104.584615 
" style="fill:none;stroke:#2c2c2c;stroke-linecap:round;stroke-width:0.85;"/>
   </g>
   <g id="line2d_101">
    <path clip-path="url(#p3f487e50b7)" d="M 517.356988 206.478462 
L 526.243138 206.478462 
" style="fill:none;stroke:#2c2c2c;stroke-linecap:round;stroke-width:0.85;"/>
   </g>
   <g id="line2d_102">
    <path clip-path="url(#p3f487e50b7)" d="M 517.356988 104.584615 
L 526.243138 104.584615 
" style="fill:none;stroke:#2c2c2c;stroke-linecap:round;stroke-width:0.85;"/>
   </g>
   <g id="line2d_103"/>
   <g id="line2d_104">
    <path clip-path="url(#p3f487e50b7)" d="M 539.935063 83.508 
L 539.935063 99.384 
" style="fill:none;stroke:#2c2c2c;stroke-linecap:round;stroke-width:0.85;"/>
   </g>
   <g id="line2d_105">
    <path clip-path="url(#p3f487e50b7)" d="M 539.935063 60.973047 
L 539.935063 37.392 
" style="fill:none;stroke:#2c2c2c;stroke-linecap:round;stroke-width:0.85;"/>
   </g>
   <g id="line2d_106">
    <path clip-path="url(#p3f487e50b7)" d="M 535.491988 99.384 
L 544.378138 99.384 
" style="fill:none;stroke:#2c2c2c;stroke-linecap:round;stroke-width:0.85;"/>
   </g>
   <g id="line2d_107">
    <path clip-path="url(#p3f487e50b7)" d="M 535.491988 37.392 
L 544.378138 37.392 
" style="fill:none;stroke:#2c2c2c;stroke-linecap:round;stroke-width:0.85;"/>
   </g>
   <g id="line2d_108">
    <g clip-path="url(#p3f487e50b7)">
     <use style="fill:#2c2c2c;stroke:#2c2c2c;stroke-linejoin:miter;" x="539.935063" xlink:href="#m5ea627b1bf" y="119.796"/>
    </g>
   </g>
   <g id="line2d_109">
    <path clip-path="url(#p3f487e50b7)" d="M 76.278913 35.460557 
L 94.051213 35.460557 
" style="fill:none;stroke:#2c2c2c;stroke-linecap:round;stroke-width:0.85;"/>
   </g>
   <g id="line2d_110">
    <path clip-path="url(#p3f487e50b7)" d="M 94.413913 149.195119 
L 112.186213 149.195119 
" style="fill:none;stroke:#2c2c2c;stroke-linecap:round;stroke-width:0.85;"/>
   </g>
   <g id="line2d_111">
    <path clip-path="url(#p3f487e50b7)" d="M 112.548913 34.242252 
L 130.321213 34.242252 
" style="fill:none;stroke:#2c2c2c;stroke-linecap:round;stroke-width:0.85;"/>
   </g>
   <g id="line2d_112">
    <path clip-path="url(#p3f487e50b7)" d="M 159.978913 65.829231 
L 177.751213 65.829231 
" style="fill:none;stroke:#2c2c2c;stroke-linecap:round;stroke-width:0.85;"/>
   </g>
   <g id="line2d_113">
    <path clip-path="url(#p3f487e50b7)" d="M 178.113913 172.159216 
L 195.886213 172.159216 
" style="fill:none;stroke:#2c2c2c;stroke-linecap:round;stroke-width:0.85;"/>
   </g>
   <g id="line2d_114">
    <path clip-path="url(#p3f487e50b7)" d="M 196.248913 38.914364 
L 214.021213 38.914364 
" style="fill:none;stroke:#2c2c2c;stroke-linecap:round;stroke-width:0.85;"/>
   </g>
   <g id="line2d_115">
    <path clip-path="url(#p3f487e50b7)" d="M 243.678913 50.234942 
L 261.451213 50.234942 
" style="fill:none;stroke:#2c2c2c;stroke-linecap:round;stroke-width:0.85;"/>
   </g>
   <g id="line2d_116">
    <path clip-path="url(#p3f487e50b7)" d="M 261.813913 159.907456 
L 279.586213 159.907456 
" style="fill:none;stroke:#2c2c2c;stroke-linecap:round;stroke-width:0.85;"/>
   </g>
   <g id="line2d_117">
    <path clip-path="url(#p3f487e50b7)" d="M 279.948913 48.008219 
L 297.721213 48.008219 
" style="fill:none;stroke:#2c2c2c;stroke-linecap:round;stroke-width:0.85;"/>
   </g>
   <g id="line2d_118">
    <path clip-path="url(#p3f487e50b7)" d="M 327.378913 44.743448 
L 345.151213 44.743448 
" style="fill:none;stroke:#2c2c2c;stroke-linecap:round;stroke-width:0.85;"/>
   </g>
   <g id="line2d_119">
    <path clip-path="url(#p3f487e50b7)" d="M 345.513913 157.96 
L 363.286213 157.96 
" style="fill:none;stroke:#2c2c2c;stroke-linecap:round;stroke-width:0.85;"/>
   </g>
   <g id="line2d_120">
    <path clip-path="url(#p3f487e50b7)" d="M 363.648913 37.65406 
L 381.421213 37.65406 
" style="fill:none;stroke:#2c2c2c;stroke-linecap:round;stroke-width:0.85;"/>
   </g>
   <g id="line2d_121">
    <path clip-path="url(#p3f487e50b7)" d="M 411.078913 43.989 
L 428.851213 43.989 
" style="fill:none;stroke:#2c2c2c;stroke-linecap:round;stroke-width:0.85;"/>
   </g>
   <g id="line2d_122">
    <path clip-path="url(#p3f487e50b7)" d="M 429.213913 156.150789 
L 446.986213 156.150789 
" style="fill:none;stroke:#2c2c2c;stroke-linecap:round;stroke-width:0.85;"/>
   </g>
   <g id="line2d_123">
    <path clip-path="url(#p3f487e50b7)" d="M 447.348913 68.482051 
L 465.121213 68.482051 
" style="fill:none;stroke:#2c2c2c;stroke-linecap:round;stroke-width:0.85;"/>
   </g>
   <g id="line2d_124">
    <path clip-path="url(#p3f487e50b7)" d="M 494.778913 73.108026 
L 512.551213 73.108026 
" style="fill:none;stroke:#2c2c2c;stroke-linecap:round;stroke-width:0.85;"/>
   </g>
   <g id="line2d_125">
    <path clip-path="url(#p3f487e50b7)" d="M 512.913913 148.356467 
L 530.686213 148.356467 
" style="fill:none;stroke:#2c2c2c;stroke-linecap:round;stroke-width:0.85;"/>
   </g>
   <g id="line2d_126">
    <path clip-path="url(#p3f487e50b7)" d="M 531.048913 72.247116 
L 548.821213 72.247116 
" style="fill:none;stroke:#2c2c2c;stroke-linecap:round;stroke-width:0.85;"/>
   </g>
   <g id="patch_24">
    <path d="M 61.450063 345.84 
L 61.450063 13.2 
" style="fill:none;stroke:#666666;stroke-linecap:square;stroke-linejoin:miter;stroke-width:1.25;"/>
   </g>
   <g id="patch_25">
    <path d="M 563.650063 345.84 
L 563.650063 13.2 
" style="fill:none;stroke:#666666;stroke-linecap:square;stroke-linejoin:miter;stroke-width:1.25;"/>
   </g>
   <g id="patch_26">
    <path d="M 61.450063 345.84 
L 563.650063 345.84 
" style="fill:none;stroke:#666666;stroke-linecap:square;stroke-linejoin:miter;stroke-width:1.25;"/>
   </g>
   <g id="patch_27">
    <path d="M 61.450063 13.2 
L 563.650063 13.2 
" style="fill:none;stroke:#666666;stroke-linecap:square;stroke-linejoin:miter;stroke-width:1.25;"/>
   </g>
   <g id="legend_1">
    <g id="patch_28">
     <path d="M 72.230063 338.14 
L 176.793656 338.14 
Q 179.873656 338.14 179.873656 335.06 
L 179.873656 268.787062 
Q 179.873656 265.707062 176.793656 265.707062 
L 72.230063 265.707062 
Q 69.150063 265.707062 69.150063 268.787062 
L 69.150063 335.06 
Q 69.150063 338.14 72.230063 338.14 
z
" style="fill:#ffffff;opacity:0.8;stroke:#cccccc;stroke-linejoin:miter;"/>
    </g>
    <g id="line2d_127"/>
    <g id="line2d_128">
     <defs>
      <path d="M -5 5 
L 5 5 
L 5 -5 
L -5 -5 
z
" id="m77c73c742b" style="stroke:#087e8b;stroke-linejoin:miter;"/>
     </defs>
     <g>
      <use style="fill:#087e8b;stroke:#087e8b;stroke-linejoin:miter;" x="90.710062" xlink:href="#m77c73c742b" y="278.178656"/>
     </g>
    </g>
    <g id="text_15">
     <!-- PD-NCI -->
     <defs>
      <path d="M 19.671875 64.796875 
L 19.671875 37.40625 
L 32.078125 37.40625 
Q 38.96875 37.40625 42.71875 40.96875 
Q 46.484375 44.53125 46.484375 51.125 
Q 46.484375 57.671875 42.71875 61.234375 
Q 38.96875 64.796875 32.078125 64.796875 
z
M 9.8125 72.90625 
L 32.078125 72.90625 
Q 44.34375 72.90625 50.609375 67.359375 
Q 56.890625 61.8125 56.890625 51.125 
Q 56.890625 40.328125 50.609375 34.8125 
Q 44.34375 29.296875 32.078125 29.296875 
L 19.671875 29.296875 
L 19.671875 0 
L 9.8125 0 
z
" id="DejaVuSans-50"/>
      <path d="M 19.671875 64.796875 
L 19.671875 8.109375 
L 31.59375 8.109375 
Q 46.6875 8.109375 53.6875 14.9375 
Q 60.6875 21.78125 60.6875 36.53125 
Q 60.6875 51.171875 53.6875 57.984375 
Q 46.6875 64.796875 31.59375 64.796875 
z
M 9.8125 72.90625 
L 30.078125 72.90625 
Q 51.265625 72.90625 61.171875 64.09375 
Q 71.09375 55.28125 71.09375 36.53125 
Q 71.09375 17.671875 61.125 8.828125 
Q 51.171875 0 30.078125 0 
L 9.8125 0 
z
" id="DejaVuSans-44"/>
      <path d="M 4.890625 31.390625 
L 31.203125 31.390625 
L 31.203125 23.390625 
L 4.890625 23.390625 
z
" id="DejaVuSans-2d"/>
      <path d="M 9.8125 72.90625 
L 23.09375 72.90625 
L 55.421875 11.921875 
L 55.421875 72.90625 
L 64.984375 72.90625 
L 64.984375 0 
L 51.703125 0 
L 19.390625 60.984375 
L 19.390625 0 
L 9.8125 0 
z
" id="DejaVuSans-4e"/>
      <path d="M 9.8125 72.90625 
L 19.671875 72.90625 
L 19.671875 0 
L 9.8125 0 
z
" id="DejaVuSans-49"/>
     </defs>
     <g style="fill:#262626;" transform="translate(118.430062 283.568656)scale(0.154 -0.154)">
      <use xlink:href="#DejaVuSans-50"/>
      <use x="60.302734" xlink:href="#DejaVuSans-44"/>
      <use x="137.304688" xlink:href="#DejaVuSans-2d"/>
      <use x="173.388672" xlink:href="#DejaVuSans-4e"/>
      <use x="248.193359" xlink:href="#DejaVuSans-43"/>
      <use x="318.017578" xlink:href="#DejaVuSans-49"/>
     </g>
    </g>
    <g id="line2d_129"/>
    <g id="line2d_130">
     <defs>
      <path d="M -5 5 
L 5 5 
L 5 -5 
L -5 -5 
z
" id="m7dc58cff9f" style="stroke:#f9dc5c;stroke-linejoin:miter;"/>
     </defs>
     <g>
      <use style="fill:#f9dc5c;stroke:#f9dc5c;stroke-linejoin:miter;" x="90.710062" xlink:href="#m7dc58cff9f" y="300.782969"/>
     </g>
    </g>
    <g id="text_16">
     <!-- PD-MCI -->
     <defs>
      <path d="M 9.8125 72.90625 
L 24.515625 72.90625 
L 43.109375 23.296875 
L 61.8125 72.90625 
L 76.515625 72.90625 
L 76.515625 0 
L 66.890625 0 
L 66.890625 64.015625 
L 48.09375 14.015625 
L 38.1875 14.015625 
L 19.390625 64.015625 
L 19.390625 0 
L 9.8125 0 
z
" id="DejaVuSans-4d"/>
     </defs>
     <g style="fill:#262626;" transform="translate(118.430062 306.172969)scale(0.154 -0.154)">
      <use xlink:href="#DejaVuSans-50"/>
      <use x="60.302734" xlink:href="#DejaVuSans-44"/>
      <use x="137.304688" xlink:href="#DejaVuSans-2d"/>
      <use x="173.388672" xlink:href="#DejaVuSans-4d"/>
      <use x="259.667969" xlink:href="#DejaVuSans-43"/>
      <use x="329.492188" xlink:href="#DejaVuSans-49"/>
     </g>
    </g>
    <g id="line2d_131"/>
    <g id="line2d_132">
     <defs>
      <path d="M -5 5 
L 5 5 
L 5 -5 
L -5 -5 
z
" id="m5e58583037" style="stroke:#e84855;stroke-linejoin:miter;"/>
     </defs>
     <g>
      <use style="fill:#e84855;stroke:#e84855;stroke-linejoin:miter;" x="90.710062" xlink:href="#m5e58583037" y="323.387281"/>
     </g>
    </g>
    <g id="text_17">
     <!-- PDD -->
     <g style="fill:#262626;" transform="translate(118.430062 328.777281)scale(0.154 -0.154)">
      <use xlink:href="#DejaVuSans-50"/>
      <use x="60.302734" xlink:href="#DejaVuSans-44"/>
      <use x="137.304688" xlink:href="#DejaVuSans-44"/>
     </g>
    </g>
   </g>
  </g>
 </g>
 <defs>
  <clipPath id="p3f487e50b7">
   <rect height="332.64" width="502.2" x="61.450063" y="13.2"/>
  </clipPath>
 </defs>
</svg>
